<svg viewBox="0 0 200 200" style="height: 30px; width: 30px; fill: rgb(51, 51, 51);">
  <path d="M48.21 41.39a3.55 3.55 0 10-5.78 4.14l3.17 4.41a3.55 3.55 0 105.77-4.14z"></path>
  <path
    d="M171.51 85.56C166.16 72.9 154.69 70.92 146.32 72c-2.75-13.71-11.89-20.57-20.21-22.43-17-3.76-27.68 7.34-32.64 16.79a40 40 0 00-3.71-1.68C88.92 54.4 87.27 44 84 34.33a50.34 50.34 0 00-8.7-16.28c-4.48-5.34-9.75-5-16-3.66a225.14 225.14 0 00-45.46 14.66 4 4 0 00-2.54 3.11 4.15 4.15 0 00.64 3.48c12.74 19.58 19.44 44.71 14.19 67.85-.64 2.85 1.18 6.39 4.53 6.24 5.42-.24 10.84-.68 16.23-1.31a22.41 22.41 0 00-4.39 19.39c2.28 9.08 9.55 19.95 30.79 22.14a194.22 194.22 0 0012 26.57 4.84 4.84 0 008.4-4.83c-.06-.11-13.48-31-13.55-31.14a4.83 4.83 0 00-8.87-.64c-10.91-1.74-17.44-6.58-19.42-14.46S56.1 110.74 63 109l6.78-1.75-1.67-2.39-2.34-3.35a25.41 25.41 0 01-3-5.45c-4.39-11.37 3.85-19 4.94-19.94a16.85 16.85 0 0112.79-3.8 25 25 0 019.84 3.44c.85.48 1.71 1 2.59 1.64l5.33 3.69 2-6.16c.26-.81 6.75-19.62 23.67-15.85 2.06.45 12.37 3.53 13.37 19.19l.43 6.35 6-2.09c1.41-.49 14-4.47 18.75 6.81 3.87 9.17 1.74 16.45-6.88 23.27a5.1 5.1 0 00-1.08.19 6.12 6.12 0 00-2.79 8.47 4.63 4.63 0 00.71.81 108.71 108.71 0 017.23 33.92 4.85 4.85 0 004.73 4.65h.31a4.85 4.85 0 004.65-5 117.55 117.55 0 00-7.29-35.65c14.61-12 13.34-25.17 9.44-34.44zM67.5 64.88a3.63 3.63 0 00-2.33-.48l-5.58.8-.9-6.31 7.66-1.1a3.56 3.56 0 10-1-7l-5 .72L64.2 44a3.56 3.56 0 00-6.3-3.3l-5.5 10.54a3.52 3.52 0 00-.4 1.42L43 54a3.56 3.56 0 00.39 7 4 4 0 00.61 0l7.67-1.1.9 6.31L47 67a3.55 3.55 0 00.42 7.07A4 4 0 0048 74l5.58-.8.66 4.8c-3.18 6.8-2.71 13.91-.91 19.76Q45 99.08 36.63 99.7c3.16-22-2.27-45-13.39-64.17A214 214 0 0160.13 24.1c3.18-.68 5.86-2.06 8.16.64a35.13 35.13 0 015.32 9.34c2.46 6 3.73 12.45 4.8 18.8.55 3.21 1 6.43 1.33 9.66a26.74 26.74 0 00-12.24 2.34z">
  </path>
</svg>