<svg viewBox="0 0 200 200" style="height: 30px; width: 30px; fill: rgb(51, 51, 51);">
  <path
    d="M187.3 67a5.67 5.67 0 00-5.09-2.66c-2.18.14-6.71 1.68-10.86 3.25-4.9-14.77-20.77-22.26-27.27-24.77-1.17-5-3.77-13.39-8.48-16.52a8 8 0 00-6.25-1.3c-6.45 1.42-12 9.8-14.72 14.77l-33.19.76c-2.29-6-6.7-14.45-13.41-14.45-9.77 0-14.66 14.71-16.6 22.74-5.43 1.47-15.31 6.42-24.54 23.12C22.41 73.8 12 78.23 9 80.35a5.42 5.42 0 00-2.31 5c.17 2.27.5 5.65 21.31 15.14-.15 11.16 3.28 20.6 10.23 28.1a45 45 0 009.64 7.75C34.39 146.09 35 163.88 35 164.73a4.85 4.85 0 004.84 4.63h.22a4.84 4.84 0 004.62-5.06c0-.16-.59-16.66 12.76-22.3a4.44 4.44 0 001-.58c11.16 4.17 25.17 6.32 41.61 6.32 22.4 0 38-3.85 48.94-9.46 9.84 2.57 14.11 18.88 14.93 25a4.84 4.84 0 004.8 4.22 4.44 4.44 0 00.63 0 4.84 4.84 0 004.18-5.43c-.13-1-2.91-21.2-15.14-29.93a40.8 40.8 0 0014.82-25.9 80.62 80.62 0 009.8-.6 4.83 4.83 0 003.82-2.65c4.24-8.43 3.92-30.84.47-35.99zM179 96.28a52.61 52.61 0 01-7.56.16 4.85 4.85 0 00-3.71-.59c-2.38.59-3.65 2.41-3.77 5.41C163.08 125 140.38 138 100.09 138c-26.09 0-45-5.55-54.73-16-5.82-6.29-8.28-14.21-7.52-24.21A4.84 4.84 0 0035 93c-5.19-2.31-11.07-5.22-15-7.46 3.43-1.62 8-3.54 12.17-5.29A4.84 4.84 0 0034.62 78C44.93 58.46 55.33 58 55.3 58h.16a4.84 4.84 0 004.75-3.92C62 44.93 65.71 37 67.78 35.9c1.54 1.25 4.15 6.33 5.6 11a4.83 4.83 0 004.74 3.41l39.59-.91a4.85 4.85 0 004.24-2.7c2.58-5.23 6.53-10.53 8.77-11.91 1.45 1.83 3.46 7.44 4.41 12.52a4.84 4.84 0 003.36 3.75c.22.07 22.83 7.16 24.52 23.57a4.85 4.85 0 006.66 4c3.37-1.38 7.34-2.87 10.1-3.79.76 5.25.78 15.66-.77 21.44z">
  </path>
  <circle cx="84.01" cy="68.03" r="4.85" transform="rotate(-13.17 84.01 68.028)"></circle>
  <path d="M113.24 63.22a4.85 4.85 0 104.12 5.48 4.85 4.85 0 00-4.12-5.48z"></path>
</svg>